<svg width="700pt" height="700pt" version="1.1" viewBox="0 0 700 600" xmlns="http://www.w3.org/2000/svg" xmlns:xlink="http://www.w3.org/1999/xlink">
 <g>
  <path fill="#a6b0cf" d="m459.2 241.36h-70v-70c0-21.281-17.359-38.641-38.641-38.641s-38.641 17.359-38.641 38.641v70h-70c-21.281 0-38.641 17.359-38.641 38.641 0 10.641 4.4805 20.16 11.199 27.441 7.2812 7.2812 16.801 11.199 27.441 11.199h70v70c0 10.641 4.4805 20.16 11.199 27.441 7.2812 7.2812 16.801 11.199 27.441 11.199 21.281 0 38.641-17.359 38.641-38.641v-70h70c21.281 0 38.641-17.359 38.641-38.641s-17.359-38.641-38.641-38.641z"/>
  <path fill="#a6b0cf" d="m459.76 14h-219.52c-86.238 0-156.24 70-156.24 156.24v219.52c0 86.242 70 156.24 156.24 156.24h219.52c86.242 0 156.24-70 156.24-156.24v-219.52c0-86.238-70-156.24-156.24-156.24zm78.398 375.76c0 43.68-35.281 78.398-78.398 78.398h-219.52c-43.68 0-78.398-35.281-78.398-78.398v-219.52c0-43.68 35.281-78.398 78.398-78.398h219.52c43.68 0 78.398 35.281 78.398 78.398z"/>
 </g>
</svg>
