<svg width="700pt" height="700pt" version="1.1" viewBox="0 0 700 600"
    xmlns="http://www.w3.org/2000/svg">
    <path fill="#dc2626" d="m409.9 121.11 152.42 265.75c5.0273 8.7695 7.6758 18.699 7.6758 28.809 0 31.98-25.926 57.91-57.902 57.91h-324.19c-31.98 0-57.906-25.93-57.906-57.91 0-10.109 2.6445-20.039 7.6758-28.809l152.42-265.75c12.312-21.461 35.16-34.695 59.902-34.695s47.59 13.234 59.902 34.695zm-31.902 72.27c0-15.465-12.535-28-28-28s-28 12.535-28 28v104.86c0 15.465 12.535 28 28 28s28-12.535 28-28zm0 184.23c0-15.465-12.535-28-28-28s-28 12.535-28 28v9.5c0 15.469 12.535 28.004 28 28.004s28-12.535 28-28.004z" fill-rule="evenodd"/>
</svg>
