<svg width="700pt" height="700pt" version="1.1" viewBox="0 0 700 600" xmlns="http://www.w3.org/2000/svg" xmlns:xlink="http://www.w3.org/1999/xlink">
 <g>
  <path fill="#a6b0cf" d="m606.67 180.4v332.82c0 25.836-20.922 46.781-46.688 46.781h-419.96c-25.785 0-46.688-20.93-46.688-46.781v-332.82c-13.949-8.0703-23.332-23.117-23.332-40.355v-93.422c0-25.746 20.93-46.621 46.781-46.621h466.44c25.836 0 46.781 20.871 46.781 46.621v93.422c0 17.238-9.3789 32.289-23.332 40.355zm-466.64 6.2695c-0.007813 137.42-0.023438 326.55-0.023438 326.55 0 0.089844 419.98 0.11328 419.98 0.11328-0.011719 0 0-189.23 0.007812-326.66zm93.309 70c0-12.887 10.48-23.336 23.227-23.336h186.88c12.828 0 23.227 10.359 23.227 23.336 0 12.887-10.48 23.332-23.227 23.332h-186.88c-12.828 0-23.227-10.355-23.227-23.332zm-116.66-116.62c0-0.058594 466.55-0.042969 466.55-0.042969 0.10547 0 0.11328-93.379 0.11328-93.379 0 0.058594-466.55 0.046875-466.55 0.046875-0.10547 0-0.11328 93.375-0.11328 93.375z"/>
 </g>
</svg>
