<svg width="700pt" height="700pt" version="1.1" viewBox="0 0 700 600" xmlns="http://www.w3.org/2000/svg" xmlns:xlink="http://www.w3.org/1999/xlink">
 <g>
  <path fill="#a6b0cf" d="m350 12.32c-147.84 0-267.68 119.84-267.68 267.68s120.4 267.68 267.68 267.68c147.84 0 267.68-120.4 267.68-267.68 0-147.84-119.84-267.68-267.68-267.68zm-124.88 114.24c35.281-28.559 79.52-44.238 124.88-44.238 39.762 0 78.961 12.32 111.44 34.719l-273.84 274.96c-26.879-38.641-38.641-85.121-33.602-132.16 5.0391-52.641 30.238-99.68 71.121-133.28zm250.32 305.76c-35.281 29.121-80.078 45.359-126 45.359-40.32 0-80.078-12.879-113.12-35.84l274.96-274.96c26.879 38.641 39.199 85.121 34.719 132.16-4.4805 52.641-29.68 99.68-70.559 133.28z"/>
 </g>
</svg>
