<svg width="700pt" height="700pt" version="1.1" viewBox="0 0 700 600" xmlns="http://www.w3.org/2000/svg" xmlns:xlink="http://www.w3.org/1999/xlink">
 <g>
  <path fill="#a6b0cf" d="m203.91 260.77 38.242-38.242c3.6836-3.6836 9.7109-3.6836 13.395 0l57.945 57.945v-235.73c0-5.207 4.2617-9.4766 9.4766-9.4766h54.078c5.207 0 9.4766 4.2617 9.4766 9.4766v235.73l57.941-57.941c3.6836-3.6836 9.7109-3.6836 13.395 0l38.242 38.242c3.6836 3.6836 3.6836 9.7109 0 13.395l-138.91 138.91c-1.9648 1.9648-4.5977 2.8516-7.1836 2.7148-2.5859 0.13281-5.2188-0.75-7.1836-2.7148l-138.91-138.91c-3.6836-3.6836-3.6836-9.7148 0-13.402zm394.11 255.58v-218.73s0.015625-2.957-2.5703-5.3828c-2.0039-1.8828-4.8555-1.8828-4.8555-1.8828h-50.34s-2.1289 0.003907-4.4023 2.0547c-2.3516 2.1211-2.3516 4.8477-2.3516 4.8477l0.003906 162.94h-366.99v-162.58s0.015625-2.957-2.5703-5.3828c-2.0039-1.8828-4.8555-1.8828-4.8555-1.8828l-50.332 0.003907s-2.1289 0.003906-4.4023 2.0547c-2.3516 2.1211-2.3516 4.8477-2.3516 4.8477v219.23c0 4.5195 3.7031 8.2227 8.2227 8.2227h479.43c4.5938 0.003906 8.3633-3.7656 8.3633-8.3672z"/>
 </g>
</svg>
