<svg width="700pt" height="700pt" version="1.1" viewBox="0 0 700 600" xmlns="http://www.w3.org/2000/svg" xmlns:xlink="http://www.w3.org/1999/xlink">
 <g>
  <path fill="#a6b0cf" d="m607.04 75.039-40.32-40.879c-2.2383-2.2383-5.0391-3.3594-7.8398-3.3594-2.8008 0-6.1602 1.1211-7.8398 3.3594l-234.64 238c-1.1211 1.1211-1.6797 2.2383-2.2383 3.9219l-26.32 66.641c-1.6797 3.9219-0.55859 8.9609 2.8008 11.762 3.3594 3.3594 7.8398 3.9219 11.762 2.2383l66.078-26.32c1.6797-0.55859 2.8008-1.6797 3.9219-2.8008l234.64-238c4.4766-3.3633 4.4766-10.641-0.003907-14.562z"/>
  <path fill="#a6b0cf" d="m504 258.16c-15.68 0-28 12.32-28 28v187.04h-330.4v-358.4h272.16c15.68 0 28-12.32 28-28 0-15.68-12.32-28-28-28h-300.16c-15.68 0-28 11.762-28 26.879v415.52c0 15.68 12.32 28 28 28h385.28c15.68 0 29.121-12.879 29.121-28l-0.003906-215.04c0-15.68-12.32-28-28-28z"/>
 </g>
</svg>
