<svg width="700pt" height="700pt" version="1.1" viewBox="0 0 700 600" xmlns="http://www.w3.org/2000/svg" xmlns:xlink="http://www.w3.org/1999/xlink">
 <g>
  <path fill='#9ca3af' d="m108.54 95.656h482.91c1.1562 0 2.293 0.074219 3.4141 0.21484l-244.87 167.86-244.87-167.87c1.1172-0.13672 2.2578-0.20703 3.4062-0.20703zm508.5 17.539-259.21 177.7c-4.4492 3.1953-10.605 3.4531-15.395 0.1875l-259.48-177.89c-1.2031 3.0781-1.8594 6.418-1.8594 9.9102v313.79c0 15.098 12.355 27.453 27.453 27.453h482.91c15.098 0 27.453-12.355 27.453-27.453l-0.007813-313.79c-0.003906-3.4883-0.66406-6.8281-1.8672-9.9102z" fill-rule="evenodd"/>
 </g>
</svg>
