<svg width="700pt" height="700pt" version="1.1" viewBox="0 0 700 600" xmlns="http://www.w3.org/2000/svg" xmlns:xlink="http://www.w3.org/1999/xlink">
 <g>
  <path fill="#cbd5e1" d="m350 46.668c-61.883 0-121.23 24.582-164.99 68.34-43.758 43.758-68.34 103.11-68.34 164.99s24.582 121.23 68.34 164.99c43.758 43.758 103.11 68.34 164.99 68.34s121.23-24.582 164.99-68.34c43.758-43.758 68.34-103.11 68.34-164.99 0-40.957-10.781-81.195-31.258-116.67-20.48-35.469-49.938-64.926-85.406-85.406-35.473-20.477-75.711-31.258-116.67-31.258zm0 431.67v-0.003907c-52.602 0-103.05-20.895-140.24-58.09-37.195-37.195-58.09-87.641-58.09-140.24s20.895-103.05 58.09-140.24c37.195-37.195 87.641-58.09 140.24-58.09s103.05 20.895 140.24 58.09c37.195 37.195 58.09 87.641 58.09 140.24s-20.895 103.05-58.09 140.24c-37.195 37.195-87.641 58.09-140.24 58.09z"/>
  <path fill="#cbd5e1" d="m420.82 349.3c-18.402 18.711-43.469 29.363-69.711 29.625-26.242 0.26172-51.516-9.8867-70.289-28.227-4.5859-3.4531-10.574-4.4414-16.027-2.6367-5.4492 1.8008-9.6719 6.1641-11.293 11.672-1.6211 5.5117-0.4375 11.465 3.1719 15.934 25.426 24.691 59.598 38.309 95.039 37.871 35.441-0.4375 69.266-14.895 94.078-40.207 3.4336-3.2695 5.3945-7.7969 5.4297-12.539 0.039062-4.7461-1.8555-9.3008-5.2422-12.625-3.3867-3.3242-7.9766-5.1289-12.719-5.0039-4.7422 0.125-9.2305 2.1719-12.438 5.668z"/>
  <path fill="#cbd5e1" d="m303.33 244.88c0 19.332-15.668 35-35 35-19.328 0-35-15.668-35-35 0-19.328 15.672-35 35-35 19.332 0 35 15.672 35 35"/>
  <path fill="#cbd5e1" d="m466.67 244.88c0 19.332-15.672 35-35 35-19.332 0-35-15.668-35-35 0-19.328 15.668-35 35-35 19.328 0 35 15.672 35 35"/>
 </g>
</svg>
