<svg width="700pt" height="700pt" version="1.1" viewBox="0 0 700 600" xmlns="http://www.w3.org/2000/svg" xmlns:xlink="http://www.w3.org/1999/xlink">
 <g>
  <path fill="#93c5fd" d="m281.68 338.91c13.973 9.3203 31.742 10.84 47.098 4.0352 7.9219-3.6523 14.77-9.2852 19.879-16.352l1.3438-1.793 1.3438 1.793c5.1094 7.0664 11.957 12.699 19.879 16.352 15.355 6.8047 33.125 5.2852 47.098-4.0352 3.1133-2.082 4.8164-5.7227 4.4141-9.4492-0.39844-3.7266-2.832-6.9258-6.3203-8.3008-7.2656-3.043-13.602-7.9492-18.367-14.223l-8.8477-10.137c-10.219-10.723-24.387-16.793-39.199-16.793s-28.98 6.0703-39.199 16.793l-8.8477 10.137c-4.7656 6.2734-11.102 11.18-18.367 14.223-3.4883 1.375-5.9219 4.5742-6.3203 8.3008-0.40234 3.7266 1.3008 7.3672 4.4141 9.4492z"/>
  <path fill="#93c5fd" d="m310.8 246.4c0 12.371-10.031 22.402-22.402 22.402-12.371 0-22.398-10.031-22.398-22.402 0-12.371 10.027-22.398 22.398-22.398 12.371 0 22.402 10.027 22.402 22.398"/>
  <path fill="#93c5fd" d="m434 246.4c0 12.371-10.027 22.402-22.398 22.402-12.371 0-22.402-10.031-22.402-22.402 0-12.371 10.031-22.398 22.402-22.398 12.371 0 22.398 10.027 22.398 22.398"/>
  <path fill="#93c5fd" d="m506.8 142.8c0 13.918-11.285 25.199-25.199 25.199-13.918 0-25.203-11.281-25.203-25.199s11.285-25.199 25.203-25.199c13.914 0 25.199 11.281 25.199 25.199"/>
  <path fill="#93c5fd" d="m272.21 452.76c25.707 4.2773 51.723 6.4297 77.785 6.4375 26.062-0.007813 52.078-2.1602 77.785-6.4375 23.852-3.875 45.879-15.152 62.965-32.238 17.086-17.086 28.363-39.113 32.234-62.965 4.1914-25.637 6.2695-51.578 6.2148-77.559-0.019531-15.77-0.84375-31.523-2.4648-47.207-0.59375-5.5156-3.2148-10.613-7.3516-14.305-4.1406-3.6953-9.5-5.7188-15.047-5.6875-6.2969-0.023437-12.312 2.6016-16.574 7.2383-4.2617 4.6328-6.375 10.848-5.8242 17.121 1.543 14.23 2.3633 28.527 2.4609 42.84 0.074218 23.598-1.8008 47.16-5.5977 70.449-2.3633 14.621-9.2734 28.129-19.746 38.605-10.477 10.473-23.984 17.383-38.605 19.746-23.289 3.7969-46.852 5.668-70.449 5.5977-23.598 0.074218-47.16-1.8008-70.449-5.5977-14.621-2.3633-28.129-9.2734-38.605-19.746-10.473-10.477-17.383-23.984-19.746-38.605-7.7734-46.645-7.7734-94.254 0-140.9 2.3633-14.621 9.2734-28.129 19.746-38.605 10.477-10.473 23.984-17.383 38.605-19.746 23.289-3.7969 46.852-5.668 70.449-5.5977 12.32 0 24.695 0.55859 37.016 1.6797 6.3086 0.61719 12.586-1.4688 17.27-5.7383 4.6875-4.2695 7.3438-10.324 7.3164-16.664 0.023438-5.5781-2.0312-10.969-5.7734-15.113-3.7383-4.1445-8.8906-6.7422-14.445-7.2852-13.773-1.0664-27.605-1.6797-41.383-1.6797-26.062 0.007813-52.078 2.1602-77.785 6.4375-23.852 3.875-45.879 15.152-62.965 32.238-17.086 17.086-28.363 39.113-32.234 62.965-8.5898 51.52-8.5898 104.1 0 155.62 3.9688 23.762 15.289 45.676 32.367 62.664 17.078 16.988 39.055 28.191 62.832 32.035z"/>
 </g>
</svg>
