<svg width="700pt" height="700pt" version="1.1" viewBox="0 0 700 600" xmlns="http://www.w3.org/2000/svg">
 <path fill="#a6b0cf" d="m693.7 278.43c-1.6641 2.707-3.9414 4.9844-6.6484 6.6484l-259.7 194.95c-4.4922 3.0547-10.02 4.1797-15.348 3.1289-5.3281-1.0547-10.012-4.1953-13.004-8.7266-2.0391-3.1445-3.2461-6.7617-3.5-10.5v-102.55s-175.35-48.301-360.5 170.1c-3.5195 4.0938-8.5273 6.6172-13.914 7.0117-5.3867 0.39453-10.707-1.375-14.785-4.9141-4.8086-4.2148-7.3945-10.418-7-16.801 8.75-105 112.35-358.75 395.5-358.75v-102.9c0.35938-5.4805 2.8867-10.594 7.0234-14.207 4.1406-3.6133 9.5469-5.4258 15.027-5.043 3.7383 0.25391 7.3516 1.4609 10.5 3.5l259.7 194.95c6.8164 4.9023 11.367 12.348 12.617 20.648 1.2539 8.3047-0.89844 16.758-5.9688 23.453z"/>
</svg>
