<svg width="700pt" height="700pt" version="1.1" viewBox="0 0 700 600" xmlns="http://www.w3.org/2000/svg" xmlns:xlink="http://www.w3.org/1999/xlink">
 <g>
  <path fill="#93c5fd" d="m602 64.512h-504c-5.9414 0-11.637 2.3594-15.84 6.5625-4.1992 4.1992-6.5586 9.8984-6.5586 15.836v391.11c0 5.9414 2.3594 11.641 6.5586 15.84 4.2031 4.1992 9.8984 6.5586 15.84 6.5586h504c5.9414 0 11.637-2.3594 15.84-6.5586 4.1992-4.1992 6.5586-9.8984 6.5586-15.84v-391.11c0-5.9375-2.3594-11.637-6.5586-15.836-4.2031-4.2031-9.8984-6.5625-15.84-6.5625zm-351.68 108.19c-6.8828 0-13.379 3.1641-17.625 8.5781l-112.3 143.21v-215.18h459.2v242.85l-72.199-92.086c-4.2461-5.4141-10.746-8.5781-17.629-8.5781-6.8789 0-13.379 3.1641-17.625 8.582l-71.203 90.812-133-169.61c-4.2461-5.4141-10.742-8.5781-17.625-8.5781zm146.78 86.465c-16.996 0.015625-33.301-6.7227-45.324-18.73-12.027-12.008-18.789-28.301-18.797-45.297-0.011718-16.992 6.7305-33.297 18.742-45.316 12.012-12.023 28.309-18.777 45.301-18.785 16.996-0.003906 33.297 6.7422 45.312 18.758 12.02 12.016 18.773 28.312 18.773 45.309-0.019531 16.973-6.7695 33.25-18.766 45.258-12 12.008-28.27 18.77-45.242 18.805z"/>
 </g>
</svg>
