<svg width="700pt" height="700pt" version="1.1" viewBox="0 0 700 600" xmlns="http://www.w3.org/2000/svg" xmlns:xlink="http://www.w3.org/1999/xlink">
 <g>
  <path fill="#a6b0cf" d="m511.28 257.6h-222.88c-12.32 0-22.398 10.078-22.398 22.398s10.078 22.398 22.398 22.398h222.88l-44.801 44.801c-8.9609 8.9609-8.9609 22.961 0 31.922 4.4805 4.4805 10.078 6.7188 15.68 6.7188s11.199-2.2383 15.68-6.7188l82.879-82.879v-2.8008c2.8008-3.9219 3.9219-7.8398 3.9219-12.879s-1.6797-9.5195-3.9219-12.879v-2.8008l-82.875-84.004c-8.9609-8.9609-22.961-8.9609-31.922 0-8.9609 8.9609-8.9609 22.961 0 31.922z"/>
  <path fill="#a6b0cf" d="m362.32 459.2c30.238 0 54.879-24.641 54.879-54.879v-45.922c0-12.32-10.078-22.398-22.398-22.398-12.32 0-22.398 10.078-22.398 22.398v45.922c0 5.6016-4.4805 10.078-10.078 10.078h-192.64c-5.6016 0-10.078-4.4805-10.078-10.078v-248.64c0-5.6016 4.4805-10.078 10.078-10.078h192.64c5.6016 0 10.078 4.4805 10.078 10.078v45.922c0 12.32 10.078 22.398 22.398 22.398s22.398-10.078 22.398-22.398v-45.922c0-30.238-24.641-54.879-54.879-54.879h-192.64c-30.238 0-54.879 24.641-54.879 54.879v248.64c0 30.238 24.641 54.879 54.879 54.879z"/>
 </g>
</svg>
