<svg width="700pt" height="700pt" version="1.1" viewBox="0 0 700 600" xmlns="http://www.w3.org/2000/svg" xmlns:xlink="http://www.w3.org/1999/xlink">
 <g>
  <path fill="#a6b0cf" d="m472.5 65.078c-0.054688-11.648-1.9141-24.828-8.5859-34.672-7.3281-10.719-17.445-17.609-30.352-19.359-13.016-1.75-26.195 1.6953-37.516 8.1484-3.8828 2.1875-7.5469 5.7969-10.992 8.75-5.6328 4.8125-11.32 9.625-16.953 14.438-18.539 15.75-37.078 31.555-55.617 47.305-19.852 16.734-39.594 33.523-59.281 50.312-10.5 8.9141-21.055 17.719-31.445 26.742-0.16406 0.10937-0.32812 0.27344-0.4375 0.38281 6.4531-2.6797 12.906-5.3594 19.359-7.9844h-41.07-65.406-14.93c-14.766 0-27.344 12.523-27.344 27.344v18.539 44.57 54.25 46.648c0 7.5469-0.10938 15.148 0 22.695v0.32812c0 14.766 12.523 27.344 27.344 27.344h41.07 65.406 14.93c-6.4531-2.6797-12.906-5.3594-19.359-7.9844 13.289 11.32 26.578 22.695 39.812 34.016 25.43 21.766 50.914 43.477 76.344 65.242 16.023 13.727 32.102 27.398 48.125 41.125 7.4375 6.3438 15.531 10.883 24.828 14.055 8.0938 2.7891 16.297 2.7344 24.555 1.2578 7.3828-1.3125 13.727-5.4141 19.305-10.172 12.742-11.047 17.172-29.367 18.156-45.5 0.54688-8.8594 0.054688-17.828 0.054688-26.688v-72.68-98.164-101.77-83.398-43.148-1.9688c0-7-3.0625-14.383-7.9844-19.359-4.7578-4.7578-12.523-8.3125-19.359-7.9844-7.0547 0.32812-14.383 2.625-19.359 7.9844-4.9219 5.3594-7.9844 11.922-7.9844 19.359v12.141 32.758 48.18 58.68 63.492 63.602 57.914 47.578 31.609c0 3.6641 0.10938 7.2734 0 10.938-0.054688 1.6953-0.21875 3.3906-0.49219 5.0859 0.32813-2.4062 0.65625-4.8672 0.98438-7.2734-0.60156 4.375-1.5859 8.6953-3.2812 12.742 0.92969-2.1875 1.8594-4.375 2.7344-6.5078-0.92969 2.2422-2.0781 4.3203-3.5547 6.2344 1.4219-1.8594 2.8438-3.6641 4.2656-5.5234-0.92969 1.2031-2.0234 2.2969-3.2266 3.2266 1.8594-1.4219 3.6641-2.8438 5.5234-4.2656-1.0391 0.76562-2.1328 1.4219-3.3359 1.9688 2.1875-0.92969 4.375-1.8594 6.5078-2.7344-1.1484 0.49219-2.3516 0.76562-3.6094 0.98438 2.4062-0.32812 4.8672-0.65625 7.2734-0.98438-1.6953 0.21875-3.3906 0.16406-5.0859-0.054687 2.4062 0.32812 4.8672 0.65625 7.2734 0.98437-2.4609-0.38281-4.8125-1.0938-7.0547-2.0234 2.1875 0.92969 4.375 1.8594 6.5078 2.7344-3.4453-1.4766-6.6719-3.3906-9.7344-5.4688 1.8594 1.4219 3.6641 2.8438 5.5234 4.2656-12.25-10.5-24.555-20.945-36.805-31.445-24.281-20.727-48.508-41.453-72.789-62.18-17.445-14.875-34.891-29.805-52.281-44.68-1.0938-0.92969-2.1875-1.8594-3.2812-2.7891-5.8516-4.9219-11.539-7.875-19.414-8.0391h-0.71094-3.6641-36.148-79.352-1.5312c9.1328 9.1328 18.211 18.211 27.344 27.344v-18.539-44.57-54.25-46.648c0-7.5469 0.16406-15.148 0-22.695v-0.32813l-27.344 27.344h70.219 41.727c3.0078 0 6.0703 0.054688 9.0781 0 1.4766-0.054687 1.3672-0.10937 4.0469-0.49219 6.4531-0.875 10.828-3.4453 15.805-7.6016 0.4375-0.32812 0.82031-0.71094 1.2578-1.0391 15.805-13.453 31.609-26.906 47.469-40.359 24.719-21.055 49.492-42.109 74.211-63.164 14.875-12.688 29.859-25.32 44.68-38.008 0.21875-0.21875 0.49219-0.38281 0.71094-0.60156-1.8594 1.4219-3.6641 2.8438-5.5234 4.2656 1.5312-0.92969 3.2266-1.6953 4.8672-2.4062-2.1875 0.92969-4.375 1.8594-6.5078 2.7344 3.1172-1.3125 6.3438-2.2969 9.7344-2.7891-2.4062 0.32812-4.8672 0.65625-7.2734 0.98438 2.0781-0.27344 4.1562-0.32812 6.2344-0.054688-2.4062-0.32812-4.8672-0.65625-7.2734-0.98437 1.3672 0.21875 2.7344 0.54687 4.0469 1.0938-2.1875-0.92969-4.375-1.8594-6.5078-2.7344 1.0938 0.49219 2.1328 1.0938 3.1172 1.8047-1.8594-1.4219-3.6641-2.8438-5.5234-4.2656 1.0391 0.82031 1.9688 1.6953 2.7891 2.7344-1.4219-1.8594-2.8438-3.6641-4.2656-5.5234 1.0938 1.4766 1.9688 3.0625 2.7344 4.7578-0.92969-2.1875-1.8594-4.375-2.7344-6.5078 1.0938 2.7344 1.75 5.5781 2.1875 8.5312-0.32812-2.4062-0.65625-4.8672-0.98438-7.2734 0.32812 2.7344 0.49219 5.5234 0.49219 8.3125 0.054687 7.0547 3.0078 14.328 7.9844 19.359 4.7578 4.7578 12.523 8.3125 19.359 7.9844 7.0547-0.32812 14.383-2.625 19.359-7.9844 4.8125-5.5781 7.9844-12.195 7.9297-19.578z"/>
  <path fill="#a6b0cf" d="m129.39 78.914c3.8828 3.8281 7.7109 7.7109 11.594 11.539 10.5 10.445 21 20.891 31.5 31.391 15.477 15.422 30.953 30.844 46.43 46.211 18.977 18.758 37.844 37.57 56.711 56.383 20.672 20.562 41.344 41.18 62.07 61.742 20.945 20.836 41.891 41.672 62.836 62.508 19.523 19.414 39.047 38.828 58.57 58.297 16.461 16.352 32.867 32.703 49.328 49.109 11.812 11.758 23.68 23.516 35.492 35.328 5.6328 5.5781 11.211 11.211 16.844 16.734 0.21875 0.21875 0.49219 0.49219 0.71094 0.71094 4.9766 4.9766 12.305 7.9844 19.359 7.9844 6.7266 0 14.711-2.9531 19.359-7.9844 4.7578-5.1953 8.3125-12.031 7.9844-19.359-0.32813-7.2188-2.7891-14.109-7.9844-19.359-3.8828-3.8281-7.7109-7.7109-11.594-11.539-10.5-10.445-21-20.891-31.5-31.391-15.477-15.422-30.953-30.844-46.43-46.211-19.031-18.758-37.898-37.57-56.766-56.383-20.672-20.562-41.344-41.18-62.07-61.742-20.945-20.836-41.891-41.672-62.836-62.508-19.523-19.414-39.047-38.828-58.57-58.297-16.461-16.352-32.867-32.703-49.328-49.109-11.812-11.758-23.68-23.516-35.492-35.328-5.6328-5.5781-11.211-11.211-16.844-16.734-0.21875-0.21875-0.49219-0.49219-0.71094-0.71094-4.9219-4.9219-12.25-7.9297-19.305-7.9297-6.7266 0-14.711 2.9531-19.359 7.9844-4.7578 5.1953-8.3125 12.031-7.9844 19.359 0.32812 7.2188 2.7891 14.109 7.9844 19.305z"/>
 </g>
</svg>
