<svg width="700pt" height="700pt" version="1.1" viewBox="0 0 700 600" xmlns="http://www.w3.org/2000/svg" xmlns:xlink="http://www.w3.org/1999/xlink">
 <g>
  <path fill="#a6b0cf" d="m391.91 400.75c-0.023437 11.109-4.457 21.758-12.328 29.602-7.8711 7.8438-18.535 12.238-29.645 12.223s-21.762-4.4414-29.609-12.305c-7.8477-7.8672-12.254-18.523-12.246-29.637 0.007812-11.109 4.4297-21.762 12.289-29.617s18.516-12.266 29.625-12.266c11.125 0.023438 21.785 4.457 29.641 12.332 7.8594 7.875 12.273 18.543 12.273 29.668zm-41.914-162.66c-11.117 0-21.777 4.418-29.637 12.277s-12.277 18.52-12.277 29.637 4.418 21.777 12.277 29.637 18.52 12.277 29.637 12.277 21.777-4.418 29.637-12.277 12.277-18.52 12.277-29.637c-0.023437-11.109-4.4492-21.758-12.305-29.609-7.8516-7.8555-18.5-12.281-29.609-12.305zm0-36.836c11.117 0 21.777-4.4141 29.637-12.277 7.8594-7.8594 12.277-18.52 12.277-29.637 0-11.113-4.418-21.773-12.277-29.637-7.8594-7.8594-18.52-12.273-29.637-12.273s-21.777 4.4141-29.637 12.273c-7.8594 7.8633-12.277 18.523-12.277 29.637 0.023437 11.109 4.4492 21.758 12.305 29.613 7.8516 7.8555 18.5 12.277 29.609 12.301z"/>
 </g>
</svg>
