<svg width="700pt" height="700pt" version="1.1" viewBox="0 0 600 500" xmlns="http://www.w3.org/2000/svg">
 <path fill="#a6b0cf" d="m245 280c0 18.566-7.375 36.371-20.504 49.496-13.125 13.129-30.93 20.504-49.496 20.504s-36.371-7.375-49.496-20.504c-13.129-13.125-20.504-30.93-20.504-49.496s7.375-36.371 20.504-49.496c13.125-13.129 30.93-20.504 49.496-20.504s36.371 7.375 49.496 20.504c13.129 13.125 20.504 30.93 20.504 49.496zm105-70c-18.566 0-36.371 7.375-49.496 20.504-13.129 13.125-20.504 30.93-20.504 49.496s7.375 36.371 20.504 49.496c13.125 13.129 30.93 20.504 49.496 20.504s36.371-7.375 49.496-20.504c13.129-13.125 20.504-30.93 20.504-49.496s-7.375-36.371-20.504-49.496c-13.125-13.129-30.93-20.504-49.496-20.504zm175 0c-18.566 0-36.371 7.375-49.496 20.504-13.129 13.125-20.504 30.93-20.504 49.496s7.375 36.371 20.504 49.496c13.125 13.129 30.93 20.504 49.496 20.504s36.371-7.375 49.496-20.504c13.129-13.125 20.504-30.93 20.504-49.496s-7.375-36.371-20.504-49.496c-13.125-13.129-30.93-20.504-49.496-20.504z"/>
</svg>
