<svg width="700pt" height="700pt" version="1.1" viewBox="0 0 700 600" xmlns="http://www.w3.org/2000/svg" xmlns:xlink="http://www.w3.org/1999/xlink">
 <g>
  <path fill='#9ca3af' d="m495.52 233.05-13.816 0.003906-0.09375-68.941c-0.039063-75.094-61.164-136.16-136.26-136.12-75.098 0.039062-136.16 61.156-136.12 136.26l0.09375 68.941h-4.8906c-25.832 0.011719-46.766 20.965-46.75 46.801l0.039062 205.25c0.011719 25.832 20.965 46.766 46.801 46.75l291.08-0.14453c25.832-0.011719 46.766-20.965 46.75-46.801l-0.039062-205.25c-0.011719-25.832-20.961-46.762-46.793-46.75zm-132.7 157.55 0.027344 58.133-21.191 0.011719-0.027344-58.133c-11.648-4.3164-19.996-15.43-20.004-28.578-0.011719-16.891 13.68-30.594 30.57-30.598 16.891-0.011719 30.594 13.68 30.598 30.57 0.007813 13.141-8.3281 24.262-19.973 28.594zm68.695-157.51-171.99 0.089844-0.09375-68.941c-0.023437-47.414 38.539-86.016 85.953-86.039 47.414-0.023438 86.016 38.539 86.039 85.953z"/>
 </g>
</svg>
