<svg width="700pt" height="700pt" version="1.1" viewBox="0 0 700 600" xmlns="http://www.w3.org/2000/svg" xmlns:xlink="http://www.w3.org/1999/xlink">
 <g>
  <path fill="#a6b0cf" d="m514.71 128.11-32.941 386.14h-263.53l-34.77-386.14zm-376.99 0 34.77 397.12c1.8281 18.301 18.301 34.77 38.43 34.77h278.17c18.301 0 36.602-16.469 38.43-34.77l34.77-397.12h31.109c31.109 0 31.109-45.75 0-45.75h-120.79v-43.922c0-21.961-18.301-38.43-38.43-38.43h-168.37c-21.961 0-38.43 16.469-38.43 38.43v43.922h-122.61c-29.281 0-29.281 45.75 0 45.75zm289.15-45.75h-153.73v-36.602h153.73z" fillRule="evenodd"/>
 </g>
</svg>
