<svg width="700pt" height="700pt" version="1.1" viewBox="0 0 700 500" xmlns="http://www.w3.org/2000/svg" xmlns:xlink="http://www.w3.org/1999/xlink">
 <g>
  <path fill="#a6b0cf" d="m316.4 386.4c31.328 0.03125 61.754-10.508 86.355-29.902l92.848 92.848 23.742-23.742-92.848-92.848c26.238-33.488 35.832-77.086 26.062-118.49-9.7656-41.406-37.828-76.125-76.266-94.355s-83.078-17.996-121.32 0.64062c-38.242 18.637-65.938 53.648-75.266 95.152-9.3281 41.508 0.72266 85.004 27.312 118.21 26.59 33.207 66.84 52.52 109.38 52.488zm0-246.4c28.219 0 55.285 11.211 75.238 31.164 19.953 19.953 31.164 47.016 31.164 75.234s-11.211 55.285-31.164 75.238-47.02 31.164-75.238 31.164-55.281-11.211-75.234-31.164c-19.953-19.953-31.164-47.02-31.164-75.238s11.211-55.281 31.164-75.234c19.953-19.953 47.016-31.164 75.234-31.164z"/>
 </g>
</svg>
