<?xml version="1.0" encoding="UTF-8"?>
<svg width="700pt" height="700pt" version="1.1" viewBox="0 0 700 700" xmlns="http://www.w3.org/2000/svg">
 <g>
  <path d="m77.172 283.58c-21.863 11.469-20.957 28.27 1.9648 37.34l67.914 26.871c22.941 9.1094 57.652 4.1367 77.098-11.035l294.92-232.58c19.387-15.25 21.465-13 4.6289 5.0273l-233.14 249.55c-16.895 17.969-11.906 40.043 11.109 48.941l7.957 3.0977c23.016 8.8984 60.527 23.848 83.391 33.145l75.32 30.668c22.883 9.2969 47.336-1.6641 53.836-25.473l114.8-421.96c6.4805-23.809-6.1055-33.918-27.969-22.469z"/>
  <path d="m263.55 559.83c-1.3398 4.0234 46.449-69.199 46.449-69.199 13.512-20.637 5.8398-45.258-16.988-54.594l-52.117-21.336c-22.828-9.3359-33.77 1.625-24.32 24.434 0 0.003907 48.355 116.56 46.977 120.7z"/>
 </g>
</svg>
