<svg width="700pt" height="700pt" version="1.1" viewBox="0 0 700 600" xmlns="http://www.w3.org/2000/svg">
 <path fill="#a6b0cf" d="m518 336c-33.602 0-64.398 14-84 39.199l-142.8-70c2.8008-8.3984 5.6016-30.801 0-47.602l142.8-72.797c19.602 25.199 50.398 39.199 84 39.199 61.602 0 112-50.398 112-112s-50.398-112-112-112-112 50.398-112 112c0 8.3984 0 16.801 2.8008 22.398l-142.8 72.801c-19.602-25.199-50.398-39.199-84-39.199-61.602 0-112 50.398-112 112s50.398 112 112 112c33.602 0 64.398-14 84-39.199l142.8 70c-2.8008 8.3984-2.8008 16.801-2.8008 25.199 0 61.602 50.398 112 112 112s112-50.398 112-112-50.398-112-112-112zm0-280c30.801 0 56 25.199 56 56s-25.199 56-56 56-56-25.199-56-56 25.199-56 56-56zm-336 280c-30.801 0-56-25.199-56-56s25.199-56 56-56 56 25.199 56 56-25.199 56-56 56zm336 168c-30.801 0-56-25.199-56-56s25.199-56 56-56 56 25.199 56 56-25.199 56-56 56z"/>
</svg>
