<?xml version="1.0" encoding="UTF-8"?>
<svg width="700pt" height="700pt" version="1.1" viewBox="0 0 700 600" xmlns="http://www.w3.org/2000/svg">
 <path fill="#059669" d="m350 70c-55.695 0-109.11 22.125-148.49 61.508-39.383 39.383-61.508 92.797-61.508 148.49s22.125 109.11 61.508 148.49c39.383 39.383 92.797 61.508 148.49 61.508s109.11-22.125 148.49-61.508c39.383-39.383 61.508-92.797 61.508-148.49s-22.125-109.11-61.508-148.49c-39.383-39.383-92.797-61.508-148.49-61.508zm112.33 130.22-116.67 163.33v0.003906c-3.9883 5.582-10.23 9.1328-17.066 9.7031-0.65234 0.046875-1.2891 0.070312-1.9258 0.070312-6.1914 0.003907-12.125-2.457-16.496-6.8359l-70-70c-5.8086-5.9102-8.043-14.457-5.875-22.453 2.1719-7.9961 8.418-14.242 16.414-16.41 7.9961-2.168 16.543 0.066407 22.453 5.8711l50.527 50.516 100.65-140.91c4.8438-6.7852 12.938-10.473 21.238-9.668 8.2969 0.80078 15.539 5.9688 18.992 13.555 3.457 7.5898 2.6016 16.441-2.2422 23.227z"/>
</svg>
