<svg width="700pt" height="700pt" version="1.1" viewBox="0 0 700 600" xmlns="http://www.w3.org/2000/svg" xmlns:xlink="http://www.w3.org/1999/xlink">
 <g>
  <path fill="#a6b0cf" d="m515.98 401.02c80.695-36.457 79.297-185.53 0-222.71-24.359-11.199-45.695 24.754-21.223 36.23 52.078 24.414 52.863 126.34 0 150.19-24.641 11.199-3.2461 47.32 21.223 36.289z"/>
  <path fill="#a6b0cf" d="m473.98 347.2c42.223-19.824 40.938-94.473 0-114.8-24.137-12.152-45.586 24.082-21.168 36.402 13.945 6.8867 14.336 35.504 0 42.281-24.418 11.199-3.1914 47.316 21.168 36.117z"/>
  <path fill="#a6b0cf"  d="m374.98 104.95v365.45l31.641-18.145-126.11-69.719c-11.199-6.3281-26.656-18.535-40.32-18.145-28.617 0.78516-58.016 2.7422-86.574 0l14.895 35.895c13.047-14.055 4.5352-46.367 5.0977-64.398 0.28125-10.527 0.44922-21.113 0.67188-31.641 0.72656-34.16-2.2383-71.176 2.4648-104.89l-20.273 15.398c32.535-1.6797 71.457 7.168 100.8-9.3516 49.504-28 99.062-56 149.63-82.207 24.023-12.434 2.8008-48.664-21.223-36.289-48.105 24.922-95.199 51.52-142.52 78.398l-15.734 8.9023c9.3516-5.3203 9.2383-2.1836-4.1445-2.1836-22.398 0-44.406-0.28125-66.527 0.89453-8.457 0.44922-18.93 5.9922-20.273 15.457-4.3125 31.305-2.8008 63.113-3.4727 94.695-0.72656 33.602-4.0898 68.879 0.28125 102.09l6.1602-14.84-0.39062 0.39062c-13.215 14.281-3.1367 34.105 14.84 35.84l-0.007812 0.003906c26.988 1.6523 54.047 1.6523 81.035 0 16.801-0.39062-10.191-7 1.5664-0.50391l26.992 14.953 121.91 67.48c6.5156 3.7891 14.555 3.8281 21.105 0.10156 6.5508-3.7266 10.629-10.652 10.703-18.191v-365.45c0-27.051-42.223-27.051-42.223 0z"/>
 </g>
</svg>
