<svg width="700pt" height="700pt" version="1.1" viewBox="0 0 700 600" xmlns="http://www.w3.org/2000/svg">
 <path fill="#a6b0cf" d="m105 280c0 38.641 31.359 70 70 70s70-31.359 70-70-31.359-70-70-70-70 31.359-70 70zm175 0c0 38.641 31.359 70 70 70s70-31.359 70-70-31.359-70-70-70-70 31.359-70 70zm175 0c0 38.641 31.359 70 70 70s70-31.359 70-70-31.359-70-70-70-70 31.359-70 70zm-315 0c0-19.32 15.68-35 35-35s35 15.68 35 35-15.68 35-35 35-35-15.68-35-35zm175 0c0-19.32 15.68-35 35-35s35 15.68 35 35-15.68 35-35 35-35-15.68-35-35zm175 0c0-19.32 15.68-35 35-35s35 15.68 35 35-15.68 35-35 35-35-15.68-35-35z" fill-rule="evenodd"/>
</svg>
