<svg width="700pt" height="700pt" version="1.1" viewBox="0 0 700 600" xmlns="http://www.w3.org/2000/svg" xmlns:xlink="http://www.w3.org/1999/xlink">
 <g>
  <path fill="#a6b0cf" d="m599.81 391.18-65.078-65.133c-12.852-13.344-28.383-20.344-44.844-20.344-16.352 0-31.992 7-45.227 20.18l-33.906 33.906c-1.6953-0.875-3.3359-1.6953-4.8672-2.4609-3.9922-1.9688-7.8203-3.9375-11.102-6.0156-34.398-21.82-65.734-50.422-95.867-87.336-13.289-16.789-22.477-30.898-29.148-44.789 8.5859-8.0391 16.68-16.242 24.336-24.117 3.2266-3.2812 6.6172-6.6719 9.8984-9.9531 13.562-13.562 20.727-29.367 20.727-45.664 0-16.406-7.1641-32.211-20.727-45.664l-32.32-32.32c-3.6641-3.6641-7.1641-7.2188-10.773-10.992l-0.16406-0.16406c-7.0547-7.2734-14.656-14.984-22.258-22.039-12.906-12.633-28.328-19.305-44.625-19.305-16.188 0-31.773 6.7266-45.062 19.414l-40.742 40.742c-16.461 16.297-25.758 36.203-27.672 59.172-2.1875 27.344 2.7891 56.219 15.641 90.727 19.359 52.609 48.508 101.28 91.711 153.18 52.336 62.562 115.55 112.05 187.8 147.11l0.054688 0.054688c27.945 13.234 65.352 28.766 106.75 31.445h0.49219c2.4062 0.10938 4.8672 0.21875 7.4922 0.21875 29.695 0 53.648-10.281 73.172-31.445 0.32812-0.38281 0.76562-0.82031 1.2031-1.4219 5.4688-6.5078 11.703-12.633 18.375-19.031l1.5312-1.4766c6.2344-5.9609 11.156-10.883 15.531-15.422 13.07-13.617 19.961-29.422 19.906-45.773 0-16.406-7-32.047-20.234-45.281zm-474.3-259.05c1.0938-12.414 5.7422-22.312 14.547-31.117l40.305-40.305c4.4297-4.2656 9.0781-6.5625 13.398-6.5625 5.25 0 9.8984 3.6094 12.852 6.6172l0.32812 0.32813c6.125 5.6875 12.031 11.703 18.266 18.047l2.8438 2.8984c1.8594 1.9141 3.7734 3.8281 5.6875 5.7969 1.8594 1.8594 3.7188 3.7734 5.5781 5.6875l32.43 32.43c3.3906 3.3906 7.4375 8.5312 7.4375 13.672 0 5.1406-4.0469 10.281-7.4375 13.672-1.6953 1.6953-3.3906 3.3906-5.0859 5.1406-1.6406 1.6953-3.3359 3.3906-5.0312 5.0859l-2.2969 2.2969c-9.1328 9.2422-17.828 17.992-27.18 26.359l-0.92969 0.92969c-14.164 14.164-9.2969 28.82-7.7109 33.633 0.10938 0.38281 0.21875 0.65625 0.32813 0.98438l0.21875 0.54688c8.8594 21.219 21 41.016 39.375 64.148l0.054687 0.054688c33.086 40.797 67.977 72.57 106.75 97.234 4.2656 2.7891 8.5859 4.9766 12.797 7.0547 0.76562 0.38281 1.5859 0.76563 2.3516 1.2031l0.054688 0.054687c3.9922 1.9688 7.8203 3.9375 11.102 6.0156l0.98438 0.54688c0.32812 0.16406 0.65625 0.38281 0.98437 0.54688 4.8125 2.4609 9.7891 3.7188 14.766 3.7188 8.4219 0 16.078-3.3906 22.75-10.117l40.578-40.578c3.1719-3.1719 7.9844-6.8906 13.234-6.8906 5.3594 0 10.008 4.1562 12.359 6.6719l0.10938 0.10937 65.516 65.406c9.4062 9.4062 9.2422 17.719-0.4375 27.781l-0.10937 0.10938c-4.5938 4.9219-9.4609 9.625-14.055 14.055l-1.3125 1.2578c-7.3281 7.1094-14.875 14.438-21.93 22.859-10.719 11.484-22.914 16.57-39.539 16.57-1.5312 0-3.2812-0.10938-5.0312-0.21875-33.961-2.1875-65.953-15.586-90.07-27.07-66.391-32.156-124.52-77.656-172.7-135.3-39.758-47.852-66.445-92.312-84.109-139.95-10.445-28.109-14.656-50.859-13.016-71.422z"/>
 </g>
</svg>
